<?xml version="1.0" encoding="UTF-8"?>
<svg id="Layer_1" data-name="Layer 1" xmlns="http://www.w3.org/2000/svg" viewBox="0 0 95.81 89.84">
  <path d="m45.53,59.13h0c17.58,0,31.84-12.99,31.84-29.01h0c0-16.02-14.25-29.01-31.84-29.01h0c-17.58,0-31.84,12.99-31.84,29.01h0c0,16.02,14.25,29.01,31.84,29.01Z" style="fill: #4873FF; stroke: #4873FF; stroke-miterlimit: 10;"/>
  <g>
    <text transform="translate(17.5 50.54) scale(.64 1)" style="fill: #231f20; font-family: Rockwell-ExtraBold, &apos;Rockwell Extra Bold&apos;; font-size: 59.61px; font-weight: 700;"><tspan x="0" y="0">&lt;/&gt;</tspan></text>
    <text transform="translate(17.5 50.54) scale(.64 1)" style="fill: #fff; font-family: Rockwell-ExtraBold, &apos;Rockwell Extra Bold&apos;; font-size: 59.61px; font-weight: 700;"><tspan x="0" y="0">&lt;/&gt;</tspan></text>
    <text transform="translate(17.5 50.54) scale(.64 1)" style="fill: none; font-family: Rockwell-ExtraBold, &apos;Rockwell Extra Bold&apos;; font-size: 59.61px; font-weight: 700; stroke: #fff; stroke-miterlimit: 10;"><tspan x="0" y="0">&lt;/&gt;</tspan></text>
  </g>
  <text transform="translate(0 79.1) scale(1.1 1)" style="fill: #231f20; font-family: SitkaText, Sitka; font-size: 21.84px; font-variation-settings: &apos;opsz&apos; 11, &apos;wght&apos; 400;"><tspan x="0" y="0">iF</tspan><tspan x="19.72" y="0" style="letter-spacing: -.02em;">r</tspan><tspan x="29.3" y="0">ameit</tspan></text>
  <text transform="translate(8 88.02)" style="fill: #e8c15a; font-family: Verdana, Verdana; font-size: 6px;"><tspan x="0" y="0">DESIGN &amp; DEVE</tspan><tspan x="49.08" y="0" style="letter-spacing: 0em;">L</tspan><tspan x="52.36" y="0">OPMENT</tspan></text>
</svg>